# xmcd
#
# Track frame offsets:
#	150
#	20042
#	33590
#	47435
#	67030
#	85352
#	99752
#	118410
#	136287
#	156135
#	169657
#	183490
#	202997
#	221307
#	235657
#	254335
#
# Disc length: 3629 seconds
#
# Revision: 1
# Processed by: cddbd v1.5.1PL2 Copyright (c) Steve Scherf et al.
# Submitted via: audiograbber 1.83.01
#
DISCID=d90e2b10
DTITLE=Garth Brooks - SC2109
DYEAR=1900
DGENRE=Karaoke
TTITLE0=The Beaches of Cheyenne
TTITLE1=Callin' Baton Rouge
TTITLE2=Papa Love Mama
TTITLE3=The Change
TTITLE4=Shameless
TTITLE5=She's Every Woman
TTITLE6=Standing Outside The Fire
TTITLE7=Ain't Going Down Til The Sun Comes Up
TTITLE8=The Beaches of Cheyenne (Vocals)
TTITLE9=Callin Baton Rouge (Vocals)
TTITLE10=Papa Loved Mama (Vocals)
TTITLE11=The Change (Vocals)
TTITLE12=Shameless (Vocals)
TTITLE13=She's Every Woman (Vocals)
TTITLE14=Standing Outside The Fire (Vocals)
TTITLE15=Ain't Going Down Til The Sun Comes Up (Vocals)
EXTD=
EXTT0=
EXTT1=
EXTT2=
EXTT3=
EXTT4=
EXTT5=
EXTT6=
EXTT7=
EXTT8=
EXTT9=
EXTT10=
EXTT11=
EXTT12=
EXTT13=
EXTT14=
EXTT15=
PLAYORDER=
